<?xml version="1.0" standalone="no"?>
<!DOCTYPE svg PUBLIC "-//W3C//DTD SVG 20010904//EN"
 "http://www.w3.org/TR/2001/REC-SVG-20010904/DTD/svg10.dtd">
<svg version="1.0" xmlns="http://www.w3.org/2000/svg"
 width="512.000000pt" height="512.000000pt" viewBox="0 0 512.000000 512.000000"
 preserveAspectRatio="xMidYMid meet">

<g transform="translate(0.000000,512.000000) scale(0.100000,-0.100000)"
fill="#000000" stroke="none">
<path d="M0 4164 c0 -861 2 -955 16 -950 8 3 23 -2 32 -11 16 -16 16 -16 -6
-11 -13 4 -20 2 -16 -3 3 -6 0 -16 -6 -24 -9 -11 -9 -15 -1 -15 6 0 11 5 11
10 0 6 5 10 10 10 6 0 10 -7 10 -15 0 -17 16 -20 24 -6 4 5 0 12 -6 14 -10 4
-10 6 0 6 7 1 24 -10 38 -24 14 -14 30 -25 37 -25 7 0 3 -8 -8 -17 -20 -15
-20 -15 2 -10 16 3 24 0 29 -15 3 -10 9 -18 12 -16 4 2 24 10 45 18 20 8 37
21 37 30 0 12 2 12 9 1 7 -10 13 -11 30 -2 11 7 21 8 21 4 0 -4 5 -2 12 5 18
18 22 15 42 -23 l19 -35 -26 -24 c-30 -28 -35 -41 -13 -33 10 4 13 1 9 -8 -3
-9 4 -18 18 -23 17 -7 19 -11 9 -17 -9 -5 -15 -4 -18 3 -2 7 -8 10 -13 6 -5
-3 -9 2 -9 11 0 9 -4 14 -8 11 -14 -8 -7 -49 9 -54 11 -3 11 -1 -1 8 -13 10
-13 11 0 7 8 -2 14 -12 14 -21 -1 -9 2 -16 7 -16 5 0 9 5 9 11 0 8 6 7 18 -2
9 -7 14 -9 9 -4 -4 5 5 15 20 22 16 7 20 11 11 8 -22 -5 -24 11 -3 19 23 8 31
-23 10 -38 -17 -12 -17 -13 3 -18 12 -3 23 -1 25 6 3 6 10 -1 17 -16 7 -15 20
-28 28 -30 9 -2 -13 -16 -49 -31 -35 -15 -50 -25 -34 -21 17 4 42 7 56 9 14 1
31 5 37 9 7 4 19 -8 31 -31 11 -21 38 -65 60 -98 41 -60 41 -60 18 -69 -72
-27 -68 -24 -61 -60 6 -34 5 -35 -35 -46 -46 -12 -56 -23 -13 -15 15 2 9 -1
-12 -8 -45 -15 -52 -27 -36 -56 7 -13 16 -18 28 -14 14 5 15 3 5 -7 -10 -11
-8 -18 11 -34 12 -12 33 -36 45 -54 13 -18 27 -29 33 -25 7 4 9 0 5 -10 -4
-12 -1 -17 10 -17 13 0 15 9 10 58 l-5 57 17 -43 c9 -24 24 -48 32 -53 12 -8
11 -12 -5 -24 -11 -8 -15 -15 -8 -15 6 0 9 -6 6 -14 -3 -7 2 -16 11 -20 10 -3
15 -12 11 -21 -3 -8 0 -15 6 -15 6 0 9 -3 5 -6 -3 -4 7 -33 24 -65 16 -33 26
-59 22 -59 -4 0 2 -7 13 -16 10 -8 14 -13 7 -9 -8 4 -8 -3 2 -22 8 -15 15 -35
15 -44 0 -17 35 -90 62 -128 9 -13 14 -29 10 -35 -3 -6 6 -3 21 7 24 15 26 16
20 0 -5 -11 -3 -14 6 -8 10 6 11 2 6 -15 -4 -12 -3 -20 1 -17 5 3 10 -7 11
-21 0 -15 6 -28 12 -30 6 -2 11 -10 11 -18 0 -8 7 -17 16 -21 8 -3 13 -12 9
-21 -4 -12 -2 -12 8 -4 16 14 28 6 20 -14 -3 -8 0 -14 7 -14 6 0 9 -4 5 -9 -3
-5 0 -13 6 -16 5 -4 8 -13 5 -21 -3 -8 -1 -14 4 -14 13 0 18 -31 9 -57 -5 -14
-3 -25 7 -34 12 -10 12 -14 2 -20 -10 -6 -7 -13 10 -29 12 -11 22 -27 22 -35
0 -8 5 -14 11 -12 6 1 14 -5 16 -13 4 -12 3 -12 -5 -1 -14 19 -20 2 -20 -51 0
-26 -4 -53 -9 -60 -4 -7 -8 -33 -9 -58 0 -34 -5 -47 -21 -55 -11 -6 -18 -16
-15 -23 2 -6 -3 -12 -12 -12 -9 0 -16 -7 -16 -15 0 -8 -3 -14 -7 -14 -22 4
-32 -3 -35 -23 -2 -18 -10 -22 -40 -24 -21 0 -38 4 -38 9 0 5 -7 4 -15 -3 -12
-10 -15 -9 -15 4 0 14 -4 15 -21 5 -15 -8 -19 -8 -15 0 4 6 2 11 -3 11 -6 0
-11 -4 -11 -10 0 -5 -9 -10 -20 -10 -11 0 -20 -6 -20 -14 0 -8 -6 -18 -12 -22
-7 -4 -10 -4 -6 1 7 7 -14 35 -27 35 -4 0 -13 7 -21 15 -8 8 -22 12 -32 9 -10
-4 -13 -3 -6 3 16 12 13 43 -4 43 -9 0 -12 6 -8 15 4 13 2 13 -14 5 -20 -11
-16 -16 -157 188 -26 37 -55 78 -66 92 l-19 25 6 -25 c6 -20 5 -22 -4 -8 -6 9
-26 34 -45 54 -19 20 -35 41 -35 45 0 5 -7 9 -15 9 -8 0 -15 5 -15 11 0 5 5 7
12 3 7 -4 8 -3 4 4 -4 6 -13 9 -20 6 -15 -6 -49 23 -41 36 3 4 -4 6 -15 3 -12
-3 -20 0 -20 6 0 7 -4 9 -10 6 -5 -3 -10 -1 -10 5 0 7 -7 9 -16 6 -11 -4 -22
1 -31 14 -8 11 -18 18 -23 15 -4 -3 -11 2 -14 10 -4 12 -10 13 -24 6 -13 -7
-22 -7 -30 1 -19 19 -15 -18 4 -47 9 -14 14 -25 11 -25 -3 0 -14 15 -26 33
l-21 32 0 -822 0 -823 2560 0 2560 0 0 253 0 253 -49 49 c-27 28 -100 107
-162 176 -63 70 -165 182 -228 249 l-114 122 7 137 c3 75 13 213 21 306 8 94
14 195 14 225 -1 64 -5 52 -14 -44 -4 -44 -10 -64 -15 -56 -5 8 -7 17 -4 21 2
4 0 10 -6 14 -5 3 -10 0 -10 -9 0 -20 -22 -25 -39 -9 -8 8 -17 11 -20 6 -3 -5
-18 -16 -33 -25 -14 -10 -29 -27 -33 -38 -3 -11 -12 -20 -20 -20 -7 0 -16 -11
-19 -24 -6 -25 -38 -46 -35 -23 4 32 -5 38 -12 7 -5 -20 -6 60 -4 190 3 230 2
248 -11 125 -6 -58 -9 -65 -15 -40 -6 28 -7 29 -9 5 -1 -14 -2 -29 -1 -34 1
-5 -5 -6 -14 -3 -8 4 -15 1 -15 -6 0 -8 -4 -6 -10 3 -8 12 -10 12 -10 -5 0
-11 -9 -26 -20 -33 -11 -7 -20 -19 -20 -26 0 -8 -6 -17 -12 -19 -10 -4 -10 -6
0 -6 6 -1 12 -6 12 -12 0 -5 -4 -7 -10 -4 -11 7 -13 -4 -14 -77 -2 -55 -16
-78 -16 -25 0 36 -13 50 -23 25 -5 -11 -11 15 -9 33 1 4 -7 5 -18 2 -12 -3
-22 1 -26 11 -3 9 -10 16 -16 16 -5 0 -6 -6 -3 -12 4 -7 0 -5 -8 5 -13 16 -15
16 -21 1 -11 -29 -6 -84 10 -110 9 -13 14 -27 11 -30 -3 -3 -11 5 -19 18 -12
21 -13 16 -18 -56 l-5 -79 -35 34 c-19 19 -32 30 -27 25 9 -12 10 -32 0 -23
-3 4 -13 2 -20 -5 -11 -9 -17 -9 -24 3 -8 13 -12 -19 -13 -113 -1 -29 -11 -37
-19 -15 -3 6 -6 2 -6 -10 -1 -12 4 -25 9 -28 5 -3 10 -17 10 -30 0 -13 6 -30
14 -37 7 -8 16 -23 20 -35 5 -17 1 -22 -21 -27 -15 -4 -36 -9 -46 -12 -16 -5
-17 8 -17 185 0 138 -3 191 -12 191 -8 0 -10 -51 -5 -195 4 -159 3 -195 -8
-195 -7 0 -19 -2 -27 -3 -7 -2 -10 -2 -7 0 11 7 -4 117 -17 131 -12 11 -14 11
-14 -2 0 -9 -6 -16 -14 -16 -19 0 -25 -22 -29 -93 -3 -74 -24 -77 -22 -3 1 47
-2 54 -17 51 -10 -2 -18 0 -18 6 0 5 5 9 10 9 6 0 21 11 34 25 13 13 26 22 29
18 4 -3 7 0 7 7 0 8 11 23 25 35 23 18 25 25 19 69 l-7 48 -19 -23 -19 -24 3
39 c4 34 3 36 -10 20 -13 -18 -14 -18 -26 -1 -12 16 -14 16 -20 1 -3 -9 -4
-19 -1 -24 3 -4 -2 -13 -10 -20 -13 -11 -15 -7 -15 29 0 76 -17 33 -19 -46 0
-43 -4 -122 -7 -177 -5 -74 -3 -100 6 -106 8 -5 1 -10 -21 -15 -19 -4 -74 -23
-122 -41 -49 -19 -93 -32 -98 -28 -5 3 -9 -2 -9 -10 0 -20 -1 -20 45 0 51 21
55 12 5 -11 -22 -10 -40 -19 -40 -20 0 -11 37 -123 55 -165 29 -69 104 -198
156 -267 26 -35 41 -67 45 -97 l7 -45 -38 -7 c-21 -4 -95 -3 -164 2 -220 14
-225 13 -401 -70 -193 -92 -184 -88 -368 -135 l-152 -39 2 98 c3 96 2 99 -37
180 -39 79 -39 82 -20 93 35 19 238 159 295 203 93 70 191 175 258 271 62 91
164 284 197 376 10 26 20 46 22 43 10 -10 23 -140 14 -150 -5 -6 -12 -27 -16
-46 -3 -19 -9 -44 -11 -55 -9 -36 46 59 57 99 l11 40 18 -40 18 -39 1 53 c1
28 6 52 11 52 6 0 10 -4 10 -10 0 -13 71 -60 82 -54 4 3 8 15 7 27 -1 20 -2
20 -8 -3 l-7 -25 -43 41 -43 40 28 59 29 59 6 -50 c4 -27 12 -60 18 -74 l12
-25 -6 25 c-3 14 -8 50 -11 80 -5 51 -3 59 35 120 48 76 50 67 16 -55 -13 -49
-23 -91 -21 -93 2 -2 11 22 20 52 9 31 30 77 46 103 16 25 27 50 24 55 -3 5 0
7 8 6 7 -2 12 5 12 14 -1 10 2 15 7 13 4 -3 16 7 26 21 l17 27 7 -24 c6 -22 7
-22 8 7 1 17 16 53 34 80 l32 49 5 -40 c5 -39 6 -39 13 -11 9 33 33 60 41 47
4 -5 1 -11 -5 -13 -7 -2 1 -12 17 -23 18 -11 25 -13 18 -4 -16 21 -17 89 -1
134 l14 40 7 -40 c8 -42 49 -130 65 -140 6 -3 4 10 -4 30 -24 57 -33 153 -22
227 6 38 13 68 16 68 15 0 64 -40 87 -71 l26 -34 -6 50 c-4 28 -9 63 -13 80
-5 28 -4 29 13 15 11 -8 32 -25 48 -39 22 -20 19 -13 -12 24 -49 60 -65 99
-56 138 l6 29 28 -48 c16 -27 38 -55 50 -62 22 -13 22 -13 6 9 -17 24 -20 65
-10 115 l6 29 66 -32 c77 -38 82 -39 82 -16 0 14 3 14 22 -3 11 -10 4 4 -17
31 -36 48 -112 192 -104 199 2 1 49 -1 103 -6 94 -7 102 -10 133 -40 26 -25
33 -28 33 -14 0 10 5 15 13 11 6 -4 2 2 -10 13 -30 27 -29 34 5 27 26 -5 26
-5 4 5 -13 5 -28 8 -33 5 -5 -4 -19 4 -33 17 -31 30 -135 167 -115 151 9 -7
18 -10 21 -7 3 3 36 -2 72 -11 79 -18 86 -18 86 -5 0 6 -11 10 -25 10 -14 0
-44 9 -66 20 -22 12 -44 18 -48 15 -5 -2 -15 3 -22 13 -13 16 -12 16 6 2 16
-11 17 -11 8 0 -13 14 -30 20 -73 24 -21 2 -27 12 -42 61 -10 32 -17 60 -14
62 2 2 22 -21 46 -52 24 -31 45 -54 47 -51 8 7 -46 128 -74 165 -16 22 -19 30
-7 20 10 -10 44 -31 74 -49 39 -23 50 -26 37 -12 -10 11 -15 22 -10 24 4 3 3
4 -3 2 -22 -5 -83 72 -148 185 -36 62 -66 115 -66 117 0 1 19 -5 43 -16 23
-10 67 -20 97 -23 30 -3 46 -4 35 -1 -11 3 -37 12 -58 20 -21 8 -43 12 -48 8
-5 -3 -8 -2 -7 3 2 5 -30 37 -69 71 -40 35 -73 67 -73 71 0 4 25 -5 56 -21 31
-15 64 -28 73 -27 9 0 -1 7 -22 14 -57 21 -136 78 -197 141 -97 101 -243 225
-335 286 -109 72 -360 197 -470 234 -77 26 -89 27 -285 27 -120 0 -224 -4
-250 -11 -41 -10 -38 -10 30 -4 97 9 374 6 424 -5 29 -6 4 -9 -90 -8 -236 0
-302 -6 -378 -37 -38 -15 -76 -33 -85 -39 -9 -6 2 5 24 25 l40 36 -55 -16
c-71 -21 -84 -28 -138 -78 -25 -22 -43 -33 -39 -23 9 25 -3 21 -52 -18 -24
-19 -47 -32 -52 -30 -4 3 -13 -4 -19 -15 -16 -29 -59 -27 -58 3 1 12 9 31 17
41 9 11 11 16 4 12 -21 -12 -130 -150 -137 -173 -4 -13 -11 -23 -16 -23 -5 0
-7 -7 -4 -15 8 -19 -25 -33 -36 -15 -6 9 -13 8 -33 -4 -15 -10 -28 -13 -31 -7
-3 5 -3 11 1 13 5 1 23 23 41 48 l34 45 -46 -50 c-28 -30 -43 -56 -40 -65 10
-28 9 -35 -6 -33 -9 1 -38 -32 -70 -78 -30 -44 -73 -102 -95 -129 -57 -69
-115 -170 -162 -280 -80 -188 -113 -310 -112 -405 l2 -60 7 55 c9 73 60 226
70 210 4 -6 10 11 14 39 4 27 10 52 14 55 4 2 0 -41 -9 -97 -10 -56 -16 -111
-13 -122 2 -11 8 -112 14 -225 6 -113 17 -234 25 -270 8 -36 14 -68 15 -72 0
-4 -12 -9 -27 -11 l-28 -4 26 -2 c19 -1 29 -8 33 -25 7 -28 53 -86 68 -86 5 0
-4 14 -21 30 -29 30 -48 67 -38 77 3 3 24 6 46 6 38 2 41 4 41 32 l0 30 20
-32 c18 -30 60 -62 60 -46 0 4 5 2 12 -5 7 -7 19 -12 28 -12 8 0 1 9 -17 20
-38 23 -60 55 -69 98 -6 30 -5 32 24 32 36 0 81 -19 83 -34 1 -6 1 -17 0 -25
-2 -7 2 -10 8 -6 6 3 11 1 11 -5 0 -7 19 -10 55 -8 31 2 54 7 52 13 -10 28
-108 93 -158 105 -108 24 -126 30 -127 42 -1 7 -5 48 -8 91 -4 42 -11 77 -15
77 -5 0 -9 6 -9 12 0 7 30 -17 68 -53 37 -37 92 -85 122 -109 30 -23 73 -58
95 -78 22 -19 51 -45 64 -56 l24 -21 -19 34 c-31 54 -102 128 -183 191 -42 32
-97 78 -123 101 -39 37 -45 47 -37 64 9 19 9 18 5 -2 -2 -13 0 -26 5 -29 7 -4
15 57 11 88 -1 6 58 183 73 220 4 10 12 15 18 11 6 -3 7 -1 3 5 -8 14 20 72
35 72 6 0 8 4 5 9 -3 4 6 23 20 42 17 22 24 27 21 14 -16 -63 -38 -177 -34
-181 2 -2 10 22 17 53 14 65 49 183 54 183 2 0 27 5 57 10 85 16 202 -11 284
-66 67 -45 89 -52 101 -33 11 18 186 1 263 -26 120 -42 140 -53 147 -83 3 -15
12 -52 19 -82 8 -30 18 -82 24 -115 14 -81 33 -447 24 -455 -9 -8 -170 3 -354
24 -101 12 -136 12 -180 3 -61 -14 -57 -19 27 -43 43 -12 119 -18 284 -21 151
-4 227 -9 232 -17 4 -6 8 -35 8 -65 0 -51 -1 -53 -24 -47 -14 3 -60 11 -103
16 -104 14 -186 31 -197 42 -13 11 -29 10 -22 -1 3 -4 -12 -13 -34 -20 -58
-17 -59 -31 -3 -31 67 0 93 -9 93 -31 0 -12 5 -16 15 -13 8 4 12 11 8 17 -4 6
2 8 18 4 13 -4 34 -7 46 -7 16 0 21 -4 16 -16 -5 -12 -1 -15 13 -11 52 14 75
17 70 8 -3 -5 1 -11 9 -15 9 -3 15 0 15 8 0 11 8 12 36 6 39 -9 54 -23 54 -52
0 -22 -12 -29 -74 -39 l-51 -8 50 3 c28 2 57 7 66 10 12 5 18 -3 27 -36 l11
-43 -5 50 c-4 48 -3 51 33 78 20 15 44 27 54 27 10 0 21 5 24 10 4 6 3 9 -2 8
-8 -2 -75 9 -105 18 -15 4 -18 17 -18 79 l0 73 58 0 c31 0 62 1 67 2 17 4 -48
18 -86 19 l-37 1 -7 183 c-4 100 -5 200 -3 222 l3 40 60 -110 c84 -155 101
-192 115 -260 20 -95 0 -267 -55 -484 -14 -57 -24 -105 -22 -108 6 -6 42 133
66 252 18 94 38 242 44 329 2 37 3 36 55 -65 38 -75 52 -115 52 -144 0 -51
-24 -143 -51 -198 -20 -42 -20 -42 0 -17 11 14 29 44 38 67 10 24 20 43 24 43
9 0 -7 -123 -25 -185 -10 -33 -29 -80 -43 -103 -22 -39 -23 -43 -5 -33 29 16
128 126 158 176 25 43 44 51 44 19 0 -8 4 -13 8 -10 5 3 7 -9 5 -27 -2 -29 -2
-29 6 -7 7 22 9 18 19 -30 26 -130 26 -133 2 -127 -17 4 -20 2 -15 -11 4 -9 9
-42 12 -74 l4 -56 -33 -7 c-64 -12 -103 -36 -135 -83 -18 -26 -60 -78 -95
-117 -42 -48 -48 -58 -19 -30 24 22 70 73 102 112 52 63 67 75 111 88 29 8 54
15 56 15 8 0 -9 -74 -34 -151 -49 -149 -195 -370 -332 -501 -76 -72 -178 -147
-323 -235 l-66 -41 -32 60 c-18 33 -35 57 -38 54 -3 -2 7 -25 22 -51 15 -25
26 -48 23 -50 -2 -2 -12 11 -23 30 -10 19 -24 35 -32 35 -8 0 -11 -4 -8 -10 3
-5 2 -10 -4 -10 -5 0 -13 5 -16 10 -10 16 -28 12 -21 -5 3 -8 1 -15 -4 -15 -6
0 -10 7 -10 15 0 9 -9 15 -24 15 -13 0 -27 7 -30 16 -4 11 -13 14 -29 10 -19
-4 -23 -1 -25 19 -1 14 3 25 8 25 6 0 10 5 10 11 0 8 -4 9 -13 0 -8 -6 -17 -8
-20 -4 -13 12 -7 21 18 25 13 3 22 2 20 -2 -3 -4 5 -10 16 -13 15 -4 20 -11
17 -25 -4 -15 -1 -18 13 -15 11 3 19 0 19 -6 0 -6 7 -11 15 -11 8 0 15 -4 15
-10 0 -5 14 -10 30 -10 28 0 30 2 19 21 -9 17 -8 20 2 14 9 -6 11 -2 7 13 -4
13 0 23 8 26 9 3 14 21 14 46 0 23 5 51 11 62 9 16 8 19 -2 13 -8 -6 -11 -4
-7 6 3 8 9 22 13 32 5 11 2 17 -6 17 -8 1 2 10 21 21 40 23 42 24 -105 -24
-129 -41 -246 -67 -308 -67 -52 0 -88 24 -117 78 -10 21 -19 32 -20 26 0 -6
14 -31 31 -57 44 -67 78 -75 202 -51 22 5 27 2 27 -15 0 -24 -4 -25 -31 -11
-13 7 -19 7 -19 0 0 -5 5 -10 11 -10 8 0 8 -5 -1 -15 -11 -13 -15 -13 -30 5
-11 13 -21 17 -25 10 -3 -5 -1 -10 4 -10 6 0 11 -5 11 -12 0 -9 -3 -9 -12 0
-7 7 -20 12 -30 12 -10 0 -18 5 -18 11 0 8 -5 8 -15 -1 -13 -11 -19 -7 -17 11
2 10 -90 0 -104 -12 -10 -8 -15 -5 -20 16 -8 32 0 42 20 25 9 -6 21 -10 28 -7
7 3 4 6 -7 7 -20 1 -20 1 -1 15 19 15 19 15 -2 15 -16 0 -22 6 -22 21 0 18 -4
20 -29 14 -25 -5 -29 -3 -27 12 4 21 -26 53 -50 53 -14 0 -15 -2 -3 -17 13
-15 12 -15 -12 0 -36 24 -53 5 -39 -42 7 -27 6 -32 -5 -27 -9 3 -12 0 -8 -10
4 -10 0 -12 -11 -8 -11 4 -14 13 -11 25 5 14 2 17 -9 13 -9 -3 -16 -1 -16 5 0
14 -61 52 -72 45 -4 -3 -8 0 -8 7 0 6 8 9 19 6 14 -3 18 -1 14 9 -3 8 1 14 11
14 9 0 16 5 16 10 0 15 -16 12 -34 -5 -17 -17 -42 -20 -51 -5 -3 6 -17 10 -29
10 -32 0 -54 26 -36 43 10 10 12 9 7 -5 -5 -13 -2 -15 11 -11 9 3 22 10 27 14
16 12 39 -7 32 -25 -4 -10 -1 -16 9 -16 9 0 12 5 8 11 -3 6 0 15 7 20 11 7 10
9 -4 9 -10 0 -16 4 -13 9 3 5 -3 11 -14 14 -21 5 -29 29 -9 24 6 -1 13 4 15
11 1 7 0 8 -2 3 -3 -6 -16 -6 -35 1 -32 11 -35 18 -18 35 9 9 7 10 -10 6 -12
-3 -21 -1 -21 6 0 6 8 11 17 11 15 0 15 1 -2 13 -24 18 -11 39 23 37 55 -4 65
-1 59 19 -3 14 4 24 30 38 45 24 67 63 49 88 -11 16 -18 16 -46 6 -42 -14 -36
-8 21 22 24 13 44 29 44 35 0 39 25 1 73 -110 31 -70 57 -126 59 -124 5 5 -87
218 -121 281 -15 28 -24 41 -20 30 3 -11 8 -27 11 -35 3 -12 -16 -21 -81 -39
-47 -13 -89 -24 -93 -23 -4 0 -13 14 -20 31 -10 24 -10 29 0 26 6 -3 23 4 37
15 l25 19 -25 -5 c-20 -5 -22 -3 -10 5 13 9 12 11 -5 11 -16 1 -13 4 10 15 41
18 27 18 -26 0 -23 -9 -46 -12 -51 -7 -4 4 -21 43 -37 87 -17 47 -31 73 -35
64 -3 -8 -4 -4 -2 8 2 13 0 23 -5 23 -9 0 -75 198 -67 205 2 3 21 6 40 7 38 3
42 18 5 18 -12 0 -28 10 -36 23 -10 17 -11 19 0 10 7 -7 27 -12 44 -12 30 2
30 2 3 6 -16 2 -28 9 -28 14 0 5 -10 9 -22 9 -23 1 -23 1 2 15 24 14 24 16 -2
19 -7 0 -37 41 -66 89 -47 77 -53 92 -43 110 6 12 9 47 7 77 -5 63 -48 230
-54 212 -2 -7 1 -27 7 -44 6 -17 11 -40 10 -52 0 -20 -37 91 -41 127 -1 9 -5
17 -8 17 -3 0 -6 12 -6 26 -2 32 4 26 22 -23 8 -21 13 -27 10 -13 -2 14 -20
62 -39 107 -19 45 -33 83 -31 85 2 2 -3 26 -11 53 -16 51 -19 83 -8 72 3 -4
17 0 30 9 16 10 28 12 36 6 8 -6 20 -2 37 15 25 23 25 24 3 29 -11 3 -23 14
-26 25 -3 10 -11 19 -17 19 -8 0 -10 -9 -6 -24 3 -14 2 -28 -4 -31 -6 -4 -10
5 -10 20 0 14 -6 28 -14 31 -11 4 -130 -32 -244 -74 -6 -2 -12 1 -12 8 0 6 5
8 10 5 6 -3 10 -1 10 4 0 10 -13 15 -31 13 -3 -1 -6 9 -5 21 1 18 7 22 31 20
20 -2 25 0 16 6 -11 7 -10 11 5 20 17 11 16 11 -6 6 -24 -6 -24 -5 -6 9 11 9
28 16 37 16 10 0 20 9 24 20 5 16 9 17 20 7 11 -10 7 -15 -18 -29 -18 -9 -25
-17 -17 -18 9 0 32 11 52 25 20 14 41 25 47 25 5 0 13 4 16 10 3 6 -1 7 -9 4
-13 -5 -16 1 -16 29 0 20 5 39 11 43 6 3 9 19 5 35 -4 22 -2 29 9 29 8 0 15 4
15 9 0 5 13 12 30 16 16 4 33 11 36 17 5 7 -2 9 -20 4 -19 -5 -26 -3 -26 8 0
9 7 12 20 9 14 -4 20 0 20 10 0 17 39 49 51 42 4 -3 6 3 4 12 -4 26 16 48 26
31 6 -8 9 1 9 24 0 34 3 38 34 44 34 6 59 34 31 34 -18 0 -19 12 -2 29 10 11
10 13 0 7 -7 -4 -13 -3 -13 2 0 8 73 45 144 72 16 6 26 13 24 16 -3 2 -29 -5
-58 -16 -29 -11 -54 -19 -57 -17 -2 3 10 10 27 16 17 6 29 15 26 20 -4 5 4 7
16 3 22 -5 22 -5 5 12 -15 15 -16 36 -1 36 3 0 2 -4 -1 -10 -3 -5 0 -10 9 -10
8 0 16 -3 19 -7 5 -9 -2 16 -11 37 -5 13 -3 13 11 1 15 -12 17 -11 15 13 -1
14 -7 26 -13 27 -13 1 86 49 102 49 6 0 14 4 17 9 8 12 -27 8 -36 -4 -5 -6 -8
-5 -8 3 0 7 6 15 14 18 16 6 10 44 -8 45 -6 0 3 7 19 15 l30 15 -37 -6 c-30
-5 -38 -3 -38 9 0 10 -6 13 -17 9 -32 -10 25 27 72 48 61 27 57 34 -5 10 -27
-11 -50 -15 -50 -10 0 5 6 9 13 9 6 0 4 5 -5 11 -18 10 -25 39 -10 39 5 0 17
7 28 15 16 13 13 13 -26 -1 -25 -8 -53 -13 -63 -10 -9 2 -15 0 -12 -4 7 -11
-31 -23 -45 -15 -5 3 -10 14 -9 23 0 14 2 13 9 -3 8 -20 9 -20 9 1 1 13 13 26
34 37 25 12 28 16 12 16 -12 1 -25 -3 -30 -8 -6 -4 -24 -11 -41 -14 -29 -6
-33 -3 -48 31 -8 20 -13 28 -11 16 4 -14 0 -21 -10 -21 -9 0 -14 6 -11 13 3 8
-2 11 -15 9 -29 -6 -23 4 14 21 31 14 31 15 4 11 -15 -2 -30 0 -33 4 -3 5 -11
9 -17 9 -7 0 -6 -4 3 -10 11 -7 11 -10 2 -10 -7 0 -22 16 -33 35 -24 40 -29
44 -22 15 3 -11 0 -20 -6 -20 -6 0 -11 4 -11 9 0 5 -10 11 -22 14 -20 3 -19 6
15 20 45 21 49 30 6 15 -25 -8 -33 -8 -40 3 -7 11 -9 10 -9 -5 0 -18 -1 -18
-17 1 -10 10 -14 13 -9 6 6 -10 4 -12 -8 -7 -9 3 -16 15 -16 26 0 10 -4 17
-10 13 -5 -3 -6 -13 -3 -23 6 -16 6 -16 -11 1 -10 9 -21 15 -26 12 -5 -3 -11
-1 -14 4 -3 5 8 14 24 20 39 13 39 22 0 11 -24 -7 -32 -5 -40 9 -5 10 -6 21
-3 25 3 3 -1 6 -10 6 -21 0 -21 -7 -1 -27 13 -13 13 -17 2 -24 -22 -15 -28
-10 -28 23 l0 31 -19 -21 c-20 -24 -36 -29 -26 -9 4 6 -1 3 -9 -7 -9 -11 -16
-17 -16 -13 0 4 -11 2 -25 -3 -16 -6 -25 -6 -25 0 0 6 -1 13 -2 17 -2 4 15 13
37 19 38 12 39 13 10 14 -27 1 -28 2 -12 14 30 23 19 24 -45 4 -41 -12 -64
-15 -66 -8 -2 5 -9 7 -15 3 -6 -4 -8 0 -4 10 5 14 2 16 -21 12 -15 -3 0 8 33
24 33 16 52 30 43 30 -12 1 -18 9 -19 24 0 13 -3 17 -6 8 -4 -10 -10 -5 -19
15 -7 18 -13 23 -13 12 -1 -9 -6 -20 -11 -23 -6 -4 -9 -3 -8 2 1 4 -5 22 -15
38 -10 19 -16 24 -17 13 0 -11 -6 -15 -21 -11 -19 5 -19 7 8 24 28 19 12 28
-17 9 -11 -7 -18 0 -32 28 -15 31 -17 33 -18 13 0 -19 -3 -21 -14 -12 -11 9
-15 9 -19 -1 -2 -7 -8 -1 -12 15 -4 15 -14 27 -24 27 -11 1 -8 5 9 15 16 9 19
14 9 15 -8 0 -20 12 -27 28 l-12 27 5 -32 c3 -25 1 -33 -10 -33 -8 0 -15 9
-15 19 0 11 -5 23 -10 26 -8 5 -7 11 1 21 9 11 7 14 -12 14 -19 0 -21 2 -9 10
12 8 11 10 -7 10 -17 0 -21 4 -16 17 4 10 2 14 -5 9 -6 -3 -14 3 -17 15 -5 15
-9 18 -15 9 -5 -7 -19 34 -35 101 -15 63 -31 119 -35 124 -13 15 -36 91 -50
163 -7 34 -16 62 -21 62 -5 0 -5 -7 -2 -17 5 -11 3 -14 -6 -8 -7 4 -11 18 -8
31 4 24 3 24 -79 24 l-84 0 0 -956z m177 864 c-3 -8 -6 -5 -6 6 -1 11 2 17 5
13 3 -3 4 -12 1 -19z m20 -70 c-3 -8 -6 -5 -6 6 -1 11 2 17 5 13 3 -3 4 -12 1
-19z m3 -392 c0 -3 -4 -8 -10 -11 -5 -3 -10 -1 -10 4 0 6 5 11 10 11 6 0 10
-2 10 -4z m524 -411 c3 -8 1 -15 -4 -15 -6 0 -10 7 -10 15 0 8 2 15 4 15 2 0
6 -7 10 -15z m-24 -10 c0 -8 -4 -15 -10 -15 -5 0 -7 7 -4 15 4 8 8 15 10 15 2
0 4 -7 4 -15z m697 -277 c-3 -8 -6 -5 -6 6 -1 11 2 17 5 13 3 -3 4 -12 1 -19z
m-17 2 c0 -5 -2 -10 -4 -10 -3 0 -8 5 -11 10 -3 6 -1 10 4 10 6 0 11 -4 11
-10z m-317 -105 c7 -17 -8 -29 -28 -21 -9 3 -12 0 -8 -10 3 -7 0 -14 -6 -14
-15 0 -14 33 1 48 16 16 35 15 41 -3z m-653 -264 c0 8 9 1 19 -14 10 -16 21
-28 25 -28 3 1 10 1 15 1 12 0 78 -174 73 -192 -1 -5 3 -8 8 -8 5 0 9 -3 9 -7
-4 -22 2 -43 10 -39 5 4 7 -2 4 -12 -2 -11 3 -26 12 -35 8 -9 15 -19 14 -22
-1 -4 10 -32 24 -63 14 -31 28 -70 32 -86 5 -23 8 -27 16 -15 17 27 55 -38 73
-126 4 -19 3 -25 -2 -17 -14 21 -25 -15 -12 -38 13 -25 13 -39 -1 -20 -9 12
-10 11 -6 -5 3 -11 8 -29 12 -40 13 -32 1 -16 -50 70 -27 44 -53 83 -59 87 -8
5 -7 8 2 8 6 0 12 5 12 11 0 6 -7 8 -16 5 -9 -3 -12 -2 -9 5 4 5 0 20 -7 32
-8 12 -41 96 -73 187 -32 91 -77 203 -100 250 -55 114 -60 126 -40 110 12 -10
15 -10 15 1z m-322 -186 c-3 -19 -68 -74 -68 -58 0 6 9 20 20 33 11 12 22 31
26 42 7 24 28 9 22 -17z m-58 0 c7 -9 8 -15 2 -15 -5 0 -12 7 -16 15 -3 8 -4
15 -2 15 2 0 9 -7 16 -15z m448 -80 c-3 -3 -9 2 -12 12 -6 14 -5 15 5 6 7 -7
10 -15 7 -18z m-178 -45 c0 -5 -2 -10 -4 -10 -3 0 -8 5 -11 10 -3 6 -1 10 4
10 6 0 11 -4 11 -10z m710 -20 c-24 -15 -37 -11 -16 5 11 8 22 12 25 9 3 -3
-1 -9 -9 -14z m-150 -10 c-24 -15 -37 -11 -16 5 11 8 22 12 25 9 3 -3 -1 -9
-9 -14z m-520 -11 c0 -4 -7 -6 -15 -3 -8 4 -15 10 -15 15 0 4 7 6 15 3 8 -4
15 -10 15 -15z m620 -143 c0 -16 -18 -31 -27 -22 -8 8 5 36 17 36 5 0 10 -6
10 -14z m-395 -52 c9 -15 12 -23 6 -20 -11 7 -35 46 -28 46 3 0 12 -12 22 -26z
m43 -70 c-4 -3 -12 5 -18 18 -12 22 -12 22 6 6 10 -10 15 -20 12 -24z m459 10
c-3 -3 -12 -4 -19 -1 -8 3 -5 6 6 6 11 1 17 -2 13 -5z m68 -44 c-3 -5 -10 -10
-16 -10 -5 0 -9 5 -9 10 0 6 7 10 16 10 8 0 12 -4 9 -10z m1562 -177 c-3 -10
-5 -4 -5 12 0 17 2 24 5 18 2 -7 2 -21 0 -30z m117 -19 c3 -9 6 -28 5 -42 0
-26 -1 -25 -14 8 -7 19 -14 38 -14 43 -2 14 17 7 23 -9z m-107 -56 c-2 -13 -4
-5 -4 17 -1 22 1 32 4 23 2 -10 2 -28 0 -40z m1409 -57 c5 -5 38 -20 74 -34
l65 -26 -40 0 c-83 0 -118 12 -126 42 -7 27 6 37 27 18z m-3318 -52 c-19 -12
-25 -11 -25 5 0 8 8 11 20 8 14 -4 16 -7 5 -13z m-73 -37 c-3 -3 -11 0 -18 7
-9 10 -8 11 6 5 10 -3 15 -9 12 -12z m-118 -8 c-3 -3 -12 -4 -19 -1 -8 3 -5 6
6 6 11 1 17 -2 13 -5z m-52 -20 c-9 -9 -18 -14 -21 -11 -9 9 6 27 22 27 13 0
13 -2 -1 -16z m999 -89 c5 -22 4 -26 -4 -15 -14 21 -12 3 5 -54 21 -68 20
-106 -2 -106 -14 0 -15 -2 -4 -9 11 -7 8 -10 -9 -16 -34 -11 -50 17 -50 84 0
73 18 140 32 120 7 -10 8 -4 4 19 -5 27 -3 31 7 20 8 -7 17 -27 21 -43z m2475
-110 c1 -29 -2 -36 -9 -25 -5 8 -9 35 -9 60 0 34 2 40 9 25 5 -11 9 -38 9 -60z
m-525 -117 c15 -35 43 -94 63 -133 l35 -70 -22 -57 c-28 -76 -93 -161 -193
-253 -68 -62 -83 -72 -89 -57 -13 32 -8 74 10 90 10 10 12 13 5 8 -20 -13 -21
-7 -13 69 5 39 11 117 15 175 4 58 13 135 21 171 15 64 16 66 67 92 29 14 57
26 63 26 6 1 24 -27 38 -61z m-2319 -78 c3 -5 1 -10 -4 -10 -6 0 -11 5 -11 10
0 6 2 10 4 10 3 0 8 -4 11 -10z m75 -65 c0 -5 -5 -3 -10 5 -5 8 -10 20 -10 25
0 6 5 3 10 -5 5 -8 10 -19 10 -25z m1751 -308 c-10 -9 -11 -8 -5 6 3 10 9 15
12 12 3 -3 0 -11 -7 -18z m1075 -58 c7 -21 8 -39 3 -39 -5 0 -9 3 -9 8 0 4 -4
24 -9 45 -12 49 0 39 15 -14z m-836 -5 c0 -8 -5 -12 -10 -9 -6 4 -8 11 -5 16
9 14 15 11 15 -7z m1195 -4 c3 -5 1 -10 -4 -10 -6 0 -11 5 -11 10 0 6 2 10 4
10 3 0 8 -4 11 -10z m85 6 c0 -3 -4 -8 -10 -11 -5 -3 -10 -1 -10 4 0 6 5 11
10 11 6 0 10 -2 10 -4z m-30 -27 c0 -6 -4 -7 -10 -4 -5 3 -10 11 -10 16 0 6 5
7 10 4 6 -3 10 -11 10 -16z m-1241 -41 c0 -33 -2 -38 -9 -23 -12 28 -12 65 0
65 6 0 10 -19 9 -42z m862 -23 c8 -16 6 -15 -10 4 -12 13 -21 28 -21 35 0 12
14 -5 31 -39z m347 -11 c2 -21 9 -46 15 -54 9 -12 9 -13 -3 -2 -22 19 -30 14
-30 -18 0 -24 4 -30 23 -30 16 0 18 3 8 9 -7 5 -9 11 -4 14 5 3 17 -7 26 -23
l17 -29 -37 5 c-21 2 -33 2 -27 -1 21 -10 4 -43 -18 -37 -12 3 -15 7 -9 12 7
3 9 14 5 23 -11 29 -24 19 -24 -18 0 -26 4 -35 16 -35 14 0 14 -3 4 -15 -15
-18 -56 -20 -66 -4 -4 7 0 9 13 5 29 -9 26 23 -5 56 -23 25 -24 30 -12 53 l13
25 23 -21 c12 -12 29 -19 36 -16 9 4 9 6 -3 6 -26 1 -44 46 -31 75 15 35 45
67 57 63 5 -2 11 -21 13 -43z m109 14 c-3 -8 -6 -5 -6 6 -1 11 2 17 5 13 3 -3
4 -12 1 -19z m-40 -40 c-3 -8 -6 -5 -6 6 -1 11 2 17 5 13 3 -3 4 -12 1 -19z
m-3057 -19 c0 -5 -4 -7 -10 -4 -5 3 -10 1 -10 -6 0 -7 -3 -10 -6 -6 -8 7 4 27
17 27 5 0 9 -5 9 -11z m-60 -53 c0 -3 -4 -8 -10 -11 -5 -3 -10 -1 -10 4 0 6 5
11 10 11 6 0 10 -2 10 -4z m3117 -38 c-3 -8 -6 -5 -6 6 -1 11 2 17 5 13 3 -3
4 -12 1 -19z m-30 -27 c-1 -16 -4 -18 -21 -9 -22 12 -23 11 21 27 1 1 1 -8 0
-18z m24 -24 c-8 -8 -11 -7 -11 4 0 20 13 34 18 19 3 -7 -1 -17 -7 -23z
m-3379 4 c-8 -4 -13 -12 -12 -17 0 -5 -6 -10 -14 -12 -9 -2 -16 3 -16 11 0 16
14 25 40 26 12 1 12 -1 2 -8z m3315 -23 c-3 -8 -6 -5 -6 6 -1 11 2 17 5 13 3
-3 4 -12 1 -19z m20 0 c-3 -8 -6 -5 -6 6 -1 11 2 17 5 13 3 -3 4 -12 1 -19z
m-3318 -9 c-11 -7 -11 -9 1 -9 13 0 13 -2 0 -9 -21 -14 -31 -3 -18 19 7 10 16
16 21 13 5 -3 3 -9 -4 -14z m3371 -46 c0 -40 -3 -53 -10 -43 -5 8 -11 12 -15
9 -3 -3 4 -16 15 -29 11 -13 20 -25 20 -27 0 -10 -21 10 -52 50 -18 23 -25 36
-15 28 14 -11 17 -11 17 0 0 11 2 11 10 -1 8 -13 10 -12 11 5 1 11 0 30 -1 43
-1 12 3 22 9 22 7 0 11 -23 11 -57z m-53 15 c-3 -8 -6 -5 -6 6 -1 11 2 17 5
13 3 -3 4 -12 1 -19z m-3407 2 c0 -5 -2 -10 -4 -10 -3 0 -8 5 -11 10 -3 6 -1
10 4 10 6 0 11 -4 11 -10z m424 -5 c4 -10 -1 -15 -15 -15 -17 0 -18 2 -7 15
16 18 15 18 22 0z m2276 -25 c0 -5 -7 -7 -15 -4 -8 4 -12 10 -9 15 6 11 24 2
24 -11z m-2280 -15 c-7 -9 -15 -13 -17 -11 -7 7 7 26 19 26 6 0 6 -6 -2 -15z
m2190 -70 c0 -25 -3 -45 -7 -45 -5 0 -7 17 -7 38 2 47 3 52 9 52 3 0 5 -20 5
-45z m-33 -7 c-3 -8 -6 -5 -6 6 -1 11 2 17 5 13 3 -3 4 -12 1 -19z m-2147 -77
c0 -6 -4 -12 -8 -15 -5 -3 -9 1 -9 9 0 8 4 15 9 15 4 0 8 -4 8 -9z m2055 -21
c-27 -12 -43 -12 -25 0 8 5 22 9 30 9 10 0 8 -3 -5 -9z m-1715 -200 c0 -5 -2
-10 -4 -10 -3 0 -8 5 -11 10 -3 6 -1 10 4 10 6 0 11 -4 11 -10z m-82 -67 c11
-11 11 -13 -2 -13 -9 0 -16 5 -16 10 0 6 -9 10 -20 10 -11 0 -20 4 -20 9 0 12
42 1 58 -16z m82 -9 c0 -2 -9 -4 -21 -4 -11 0 -18 4 -14 10 5 8 35 3 35 -6z
m315 -24 c3 -5 1 -10 -4 -10 -6 0 -11 5 -11 10 0 6 2 10 4 10 3 0 8 -4 11 -10z
m-30 -10 c3 -6 -1 -7 -9 -4 -18 7 -21 14 -7 14 6 0 13 -4 16 -10z m60 -61 c-1
-13 -7 -25 -14 -27 -7 -2 -12 2 -10 9 4 32 -1 50 -13 43 -7 -4 -8 -3 -4 4 12
19 43 -4 41 -29z m-245 27 c0 -3 -4 -8 -10 -11 -5 -3 -10 -1 -10 4 0 6 5 11
10 11 6 0 10 -2 10 -4z m42 -28 c-7 -7 -12 -8 -12 -2 0 14 12 26 19 19 2 -3
-1 -11 -7 -17z m155 -23 c0 -8 -4 -12 -9 -9 -5 3 -6 10 -3 15 9 13 12 11 12
-6z m288 -121 c-26 -20 -55 -36 -55 -30 0 5 63 46 70 46 3 -1 -4 -8 -15 -16z"/>
<path d="M1516 2307 c3 -10 9 -15 12 -12 3 3 0 11 -7 18 -10 9 -11 8 -5 -6z"/>
<path d="M4430 1478 c0 -15 -4 -28 -10 -30 -6 -2 -6 -9 0 -17 6 -11 10 -5 15
23 4 20 5 40 1 43 -3 4 -6 -5 -6 -19z"/>
<path d="M3912 5060 c0 -14 2 -19 5 -12 2 6 2 18 0 25 -3 6 -5 1 -5 -13z"/>
<path d="M3531 4631 c-33 -17 -33 -19 -13 -25 12 -4 30 -2 39 4 15 8 12 9 -12
5 l-30 -6 35 20 c44 25 27 27 -19 2z"/>
<path d="M3460 4595 c0 -8 5 -15 11 -15 5 0 8 4 5 9 -4 5 0 12 6 14 8 3 6 6
-4 6 -10 1 -18 -6 -18 -14z"/>
<path d="M4987 4093 c-60 -25 -104 -49 -99 -52 5 -3 12 -16 16 -28 5 -14 15
-23 27 -23 11 0 17 4 14 10 -3 5 0 7 8 4 15 -6 135 40 152 58 7 8 6 9 -2 4 -7
-4 -13 -2 -13 3 0 6 5 11 10 11 6 0 10 9 10 20 0 14 -5 18 -17 14 -15 -5 -15
-3 1 10 30 24 11 19 -107 -31z"/>
<path d="M4880 4015 c0 -8 4 -15 10 -15 5 0 7 7 4 15 -4 8 -8 15 -10 15 -2 0
-4 -7 -4 -15z"/>
<path d="M2224 3920 c-32 -17 -72 -42 -89 -56 -26 -22 -27 -24 -5 -13 14 7 38
14 54 15 33 2 166 63 166 76 0 18 -71 6 -126 -22z"/>
<path d="M2418 3933 c7 -3 16 -2 19 1 4 3 -2 6 -13 5 -11 0 -14 -3 -6 -6z"/>
<path d="M5020 3884 c-64 -30 -75 -43 -16 -18 16 6 18 4 13 -9 -7 -20 12 -35
23 -17 5 8 9 7 14 -5 3 -9 4 -21 0 -26 -3 -5 -1 -9 5 -9 5 0 12 12 14 28 4 26
4 26 6 -4 1 -28 -3 -32 -39 -44 -52 -17 -44 -25 9 -9 36 11 41 16 41 43 0 17
4 48 9 69 5 20 6 37 2 36 -3 0 -40 -16 -81 -35z"/>
<path d="M1431 3794 c0 -11 3 -14 6 -6 3 7 2 16 -1 19 -3 4 -6 -2 -5 -13z"/>
<path d="M5077 3734 c-4 -4 -7 -14 -7 -23 0 -11 3 -12 11 -4 6 6 10 16 7 23
-2 6 -7 8 -11 4z"/>
<path d="M5047 3701 c-4 -17 -3 -21 5 -13 5 5 8 16 6 23 -3 8 -7 3 -11 -10z"/>
<path d="M5047 3655 c-4 -8 -2 -17 3 -20 5 -3 11 3 13 12 2 10 4 1 4 -19 0
-38 -10 -49 -21 -25 -3 6 -4 3 -1 -9 3 -11 -2 -29 -10 -40 -21 -27 -18 -52 6
-59 11 -4 22 -5 24 -3 2 2 7 43 11 91 6 74 5 87 -9 87 -8 0 -17 -7 -20 -15z
m10 -142 c-3 -10 -5 -4 -5 12 0 17 2 24 5 18 2 -7 2 -21 0 -30z"/>
<path d="M1390 3630 c0 -5 5 -10 11 -10 5 0 7 5 4 10 -3 6 -8 10 -11 10 -2 0
-4 -4 -4 -10z"/>
<path d="M1401 3594 c0 -11 3 -14 6 -6 3 7 2 16 -1 19 -3 4 -6 -2 -5 -13z"/>
<path d="M1400 3540 c-8 -5 -10 -10 -5 -10 6 0 17 5 25 10 8 5 11 10 5 10 -5
0 -17 -5 -25 -10z"/>
<path d="M1148 3263 c7 -3 16 -2 19 1 4 3 -2 6 -13 5 -11 0 -14 -3 -6 -6z"/>
<path d="M1085 3230 c-7 -12 2 -12 30 0 19 8 19 9 -2 9 -12 1 -25 -3 -28 -9z"/>
<path d="M1090 3189 c0 -5 5 -7 10 -4 6 3 10 8 10 11 0 2 -4 4 -10 4 -5 0 -10
-5 -10 -11z"/>
<path d="M75 3130 c-3 -5 -2 -10 4 -10 5 0 17 -3 25 -6 12 -5 15 -2 10 10 -7
18 -29 21 -39 6z"/>
<path d="M4899 2927 c18 -18 13 -27 -14 -27 -14 0 -25 -4 -25 -10 0 -5 -9 -10
-19 -10 -25 0 -32 -12 -21 -30 7 -11 1 -18 -20 -27 -23 -9 -28 -16 -23 -30 4
-10 11 -21 17 -25 7 -5 4 -8 -6 -8 -10 0 -18 -9 -20 -22 -2 -19 -11 -24 -53
-29 -27 -3 -40 -7 -27 -7 31 -3 18 -22 -14 -22 -14 0 -22 4 -19 10 7 11 -56 2
-65 -10 -7 -9 -129 -60 -144 -60 -8 0 -19 -7 -26 -15 -7 -9 -19 -14 -27 -11
-8 4 -11 1 -7 -5 12 -20 -126 -2 -142 18 -7 10 -14 13 -14 7 0 -6 25 -38 55
-71 45 -50 59 -60 80 -56 14 3 25 10 25 17 0 6 5 4 10 -4 8 -13 10 -13 10 2 0
9 -6 19 -12 21 -8 4 -7 6 3 6 9 1 19 -6 23 -14 7 -19 21 -19 40 1 9 8 16 12
16 9 0 -4 11 0 25 9 14 9 25 13 25 8 0 -5 -18 -17 -40 -27 -22 -10 -38 -20
-36 -22 2 -2 26 6 53 20 26 13 76 34 111 47 34 12 61 24 59 27 -2 2 -15 -1
-29 -6 -19 -7 -27 -5 -36 9 -16 27 6 39 26 14 14 -18 14 -18 9 4 -6 25 -4 26
26 10 19 -9 20 -9 10 3 -9 11 -8 19 4 34 11 14 17 16 20 8 3 -7 17 -13 31 -14
25 0 25 -1 7 -10 -16 -7 -12 -8 15 -5 l35 5 -40 -20 c-64 -31 0 -10 120 39 61
24 116 45 122 45 13 0 18 23 27 112 l5 50 -71 37 c-39 20 -65 31 -59 25z m-84
-206 c-21 -18 -95 -54 -101 -48 -10 9 6 27 24 27 9 0 28 7 42 14 29 16 49 20
35 7z m-145 -66 c-7 -8 -17 -15 -22 -15 -11 0 14 29 26 30 5 0 3 -7 -4 -15z
m-337 -112 c-7 -2 -19 -2 -25 0 -7 3 -2 5 12 5 14 0 19 -2 13 -5z m40 -40 c-7
-2 -21 -2 -30 0 -10 3 -4 5 12 5 17 0 24 -2 18 -5z"/>
<path d="M4775 2910 c-3 -5 -2 -10 4 -10 5 0 13 5 16 10 3 6 2 10 -4 10 -5 0
-13 -4 -16 -10z"/>
<path d="M4846 2911 c-3 -4 6 -6 19 -3 14 2 25 6 25 8 0 8 -39 4 -44 -5z"/>
<path d="M1676 2893 c-6 -14 -5 -15 5 -6 7 7 10 15 7 18 -3 3 -9 -2 -12 -12z"/>
<path d="M850 2860 c-9 -6 -10 -10 -3 -10 6 0 15 5 18 10 8 12 4 12 -15 0z"/>
<path d="M1422 2790 c0 -14 2 -19 5 -12 2 6 2 18 0 25 -3 6 -5 1 -5 -13z"/>
<path d="M5112 2695 c-1 -5 -11 -90 -22 -188 -12 -98 -27 -229 -35 -290 -18
-131 -18 -153 0 -77 12 53 13 54 14 16 1 -29 4 -37 16 -32 8 3 15 0 15 -6 0
-8 3 -9 10 -2 7 7 9 113 7 300 -1 159 -3 285 -5 279z"/>
<path d="M5002 2660 c0 -19 2 -27 5 -17 2 9 2 25 0 35 -3 9 -5 1 -5 -18z"/>
<path d="M4925 2639 c-54 -22 -75 -36 -35 -24 37 12 107 44 95 44 -5 0 -32 -9
-60 -20z"/>
<path d="M466 2601 c-4 -5 3 -7 14 -4 23 6 26 13 6 13 -8 0 -17 -4 -20 -9z"/>
<path d="M4278 2603 c6 -2 18 -2 25 0 6 3 1 5 -13 5 -14 0 -19 -2 -12 -5z"/>
<path d="M4338 2593 c7 -3 16 -2 19 1 4 3 -2 6 -13 5 -11 0 -14 -3 -6 -6z"/>
<path d="M290 2494 c0 -6 7 -19 16 -30 14 -18 14 -18 3 6 -14 31 -19 36 -19
24z"/>
<path d="M1411 2464 c0 -11 3 -14 6 -6 3 7 2 16 -1 19 -3 4 -6 -2 -5 -13z"/>
<path d="M1401 2424 c0 -11 3 -14 6 -6 3 7 2 16 -1 19 -3 4 -6 -2 -5 -13z"/>
<path d="M4399 2413 c-10 -12 -10 -15 -1 -9 7 4 20 2 30 -6 16 -12 16 -11 2 7
-8 11 -15 21 -16 23 -1 1 -7 -5 -15 -15z"/>
<path d="M1370 2354 c0 -5 13 -23 28 -39 30 -34 27 -25 -6 19 -12 16 -22 25
-22 20z"/>
<path d="M4634 2172 c-1 -38 1 -44 3 -17 3 22 9 42 14 46 6 3 5 10 -3 17 -11
8 -13 0 -14 -46z"/>
<path d="M4310 2165 c13 -14 26 -25 28 -25 3 0 -5 11 -18 25 -13 14 -26 25
-28 25 -3 0 5 -11 18 -25z"/>
<path d="M2315 2130 c4 -6 29 -10 57 -10 64 0 60 5 -10 13 -32 4 -50 2 -47 -3z"/>
<path d="M42 2051 c24 -33 61 -85 83 -117 22 -31 48 -66 58 -78 22 -24 -78
123 -135 202 -21 28 -41 52 -43 52 -3 0 14 -27 37 -59z"/>
<path d="M1738 2083 c7 -3 16 -2 19 1 4 3 -2 6 -13 5 -11 0 -14 -3 -6 -6z"/>
<path d="M4775 2080 c5 -8 32 -35 59 -60 28 -25 58 -53 68 -62 10 -10 18 -14
18 -9 0 5 -35 39 -77 77 -42 38 -73 62 -68 54z"/>
<path d="M4942 2070 c0 -14 2 -19 5 -12 2 6 2 18 0 25 -3 6 -5 1 -5 -13z"/>
<path d="M4351 2044 c0 -11 3 -14 6 -6 3 7 2 16 -1 19 -3 4 -6 -2 -5 -13z"/>
<path d="M5032 2020 c0 -14 2 -19 5 -12 2 6 2 18 0 25 -3 6 -5 1 -5 -13z"/>
<path d="M2485 2000 c3 -5 13 -10 21 -10 8 0 12 5 9 10 -3 6 -13 10 -21 10 -8
0 -12 -4 -9 -10z"/>
<path d="M4875 1948 c26 -31 44 -61 42 -66 -3 -4 -2 -14 4 -22 6 -11 9 -4 9
23 0 38 18 48 28 17 3 -8 0 -10 -8 -5 -25 16 5 -24 73 -94 37 -39 66 -75 63
-80 -5 -7 15 -21 30 -21 15 0 -1 60 -22 84 -26 30 -47 29 -23 -1 13 -16 12
-17 -4 -4 -10 8 -16 20 -13 27 3 8 -21 39 -54 70 -33 32 -61 66 -61 78 -1 20
-2 20 -6 1 -2 -11 -6 -26 -8 -32 -3 -8 -23 7 -51 35 l-46 47 47 -57z m110 -78
c10 -11 16 -20 13 -20 -3 0 -13 9 -23 20 -10 11 -16 20 -13 20 3 0 13 -9 23
-20z m55 -56 c0 -3 -7 -1 -15 6 -8 7 -15 17 -15 22 0 5 7 3 15 -6 8 -8 15 -18
15 -22z"/>
<path d="M2588 1978 c5 -5 16 -8 23 -6 8 3 3 7 -10 11 -17 4 -21 3 -13 -5z"/>
<path d="M2575 1900 c-3 -5 -1 -10 4 -10 6 0 11 5 11 10 0 6 -2 10 -4 10 -3 0
-8 -4 -11 -10z"/>
<path d="M4912 1810 c0 -19 2 -27 5 -17 2 9 2 25 0 35 -3 9 -5 1 -5 -18z"/>
<path d="M2762 1810 c0 -14 2 -19 5 -12 2 6 2 18 0 25 -3 6 -5 1 -5 -13z"/>
<path d="M0 1762 c0 -18 1 -32 3 -32 1 0 17 -4 35 -9 28 -9 31 -8 23 7 -5 9
-21 28 -35 41 l-26 24 0 -31z"/>
<path d="M2771 1764 c0 -11 3 -14 6 -6 3 7 2 16 -1 19 -3 4 -6 -2 -5 -13z"/>
<path d="M4902 1725 c0 -16 2 -22 5 -12 2 9 2 23 0 30 -3 6 -5 -1 -5 -18z"/>
<path d="M2781 1724 c0 -11 3 -14 6 -6 3 7 2 16 -1 19 -3 4 -6 -2 -5 -13z"/>
<path d="M3213 1700 c0 -25 2 -35 4 -22 2 12 2 32 0 45 -2 12 -4 2 -4 -23z"/>
<path d="M3820 1726 c0 -2 7 -7 16 -10 8 -3 12 -2 9 4 -6 10 -25 14 -25 6z"/>
<path d="M380 1559 c92 -138 138 -202 115 -159 -22 40 -197 300 -206 306 -6 3
35 -63 91 -147z"/>
<path d="M36 1667 c3 -10 9 -15 12 -12 3 3 0 11 -7 18 -10 9 -11 8 -5 -6z"/>
<path d="M4885 1620 c-4 -33 -10 -60 -13 -60 -3 0 -20 12 -36 28 -17 15 -23
18 -14 7 13 -16 16 -42 15 -137 -1 -119 -5 -148 -10 -67 -1 33 -6 45 -20 47
-16 3 -17 1 -8 -16 15 -28 14 -35 -5 -28 -10 4 -19 -4 -28 -26 -10 -22 -15
-27 -17 -16 -4 15 -6 15 -24 1 -16 -13 -17 -15 -2 -10 9 4 17 2 17 -3 0 -5
-18 -14 -40 -20 -22 -6 -40 -13 -40 -16 0 -3 9 -3 20 0 11 3 29 9 40 12 17 5
20 1 20 -27 0 -18 -3 -29 -7 -26 -10 11 -33 -13 -33 -34 0 -26 19 -24 30 4 8
21 9 21 9 1 1 -11 -5 -26 -11 -33 -13 -14 -12 -13 52 19 12 6 25 8 30 5 5 -3
11 16 13 42 2 27 4 5 5 -47 1 -52 -3 -143 -10 -203 -6 -59 -9 -109 -7 -111 2
-3 18 -6 34 -9 34 -4 51 -27 40 -53 -11 -26 -12 -46 -2 -66 8 -19 37 -25 37
-8 0 21 20 9 21 -12 0 -13 3 -18 5 -12 7 17 54 -6 54 -26 0 -12 2 -12 9 -2 4
7 9 41 10 75 3 80 11 88 12 11 0 -48 2 -54 10 -35 11 27 1 92 -15 103 -17 12
-24 10 -46 -12 -20 -20 -20 -20 -20 35 0 44 3 53 15 49 10 -4 15 0 15 11 0 11
-5 15 -16 11 -8 -3 -13 -2 -10 3 3 4 -4 19 -16 32 -53 60 -59 71 -17 31 25
-23 48 -39 52 -36 10 11 8 26 -2 20 -5 -4 -7 4 -3 16 5 19 8 17 24 -21 17 -41
37 -48 39 -13 1 9 4 4 8 -13 6 -25 10 -12 26 70 10 55 22 102 26 105 5 3 10
37 13 75 l5 69 -51 54 c-28 30 -48 46 -44 36 5 -14 4 -15 -8 -5 -9 8 -15 8
-18 1 -1 -5 -9 0 -17 12 -13 21 -13 22 2 9 31 -25 17 4 -24 49 -28 31 -34 35
-20 13 23 -34 27 -53 10 -53 -5 0 -7 5 -4 10 3 6 1 10 -5 10 -15 0 -30 -44
-23 -70 4 -13 0 -26 -8 -31 -12 -7 -12 -9 0 -9 8 0 11 -7 8 -20 -4 -18 -2 -20
16 -14 12 3 36 15 54 26 25 15 37 17 52 8 11 -5 24 -10 28 -9 20 3 27 -2 13
-11 -13 -8 -13 -10 2 -10 9 0 20 -4 23 -10 4 -6 -6 -7 -25 -4 -37 8 -120 -14
-138 -35 -7 -9 -11 -11 -10 -5 4 15 -15 19 -20 5 -2 -6 5 -14 15 -17 10 -4 46
-20 80 -38 63 -31 77 -52 49 -75 -11 -9 -20 -6 -44 14 -43 36 -135 77 -143 64
-5 -8 -9 -8 -13 0 -4 6 -3 11 2 11 9 0 13 37 27 280 2 41 7 101 11 133 4 31 4
57 1 57 -3 0 -8 -27 -12 -60z m58 -230 c-3 -11 -7 -20 -9 -20 -2 0 -4 9 -4 20
0 11 4 20 9 20 5 0 7 -9 4 -20z m112 -37 l18 -28 -21 19 c-12 11 -22 23 -22
28 0 14 7 9 25 -19z m-338 -125 c-3 -8 -6 -5 -6 6 -1 11 2 17 5 13 3 -3 4 -12
1 -19z"/>
<path d="M120 1646 c0 -4 7 -14 15 -22 8 -9 15 -11 15 -6 0 5 -7 15 -15 22 -8
7 -15 9 -15 6z"/>
<path d="M1675 1610 c10 -11 20 -20 23 -20 3 0 -3 9 -13 20 -10 11 -20 20 -23
20 -3 0 3 -9 13 -20z"/>
<path d="M4821 1530 c-1 -30 -4 -40 -10 -31 -7 11 -10 9 -16 -8 -7 -22 0 -41
15 -41 12 0 23 60 17 96 -3 21 -4 17 -6 -16z"/>
<path d="M4720 1536 c7 -7 13 -7 20 0 6 6 3 10 -10 10 -13 0 -16 -4 -10 -10z"/>
<path d="M1620 1535 c0 -5 5 -17 10 -25 5 -8 10 -10 10 -5 0 6 -5 17 -10 25
-5 8 -10 11 -10 5z"/>
<path d="M3824 1365 c0 -71 1 -99 3 -62 2 37 2 96 0 130 -2 34 -3 4 -3 -68z"/>
<path d="M3130 1420 c-18 -12 -2 -12 25 0 13 6 15 9 5 9 -8 0 -22 -4 -30 -9z"/>
<path d="M3578 1270 c-14 -16 -22 -30 -17 -32 9 -3 22 -102 21 -150 -1 -13 4
-15 21 -9 18 7 23 17 25 62 4 62 -6 159 -16 158 -4 0 -19 -13 -34 -29z m42
-71 c0 -3 -7 -6 -15 -6 -17 0 -17 0 -9 22 5 13 8 14 15 3 5 -7 9 -16 9 -19z
m-5 -49 c3 -5 1 -10 -4 -10 -6 0 -11 5 -11 10 0 6 2 10 4 10 3 0 8 -4 11 -10z"/>
<path d="M4696 1286 c3 -8 12 -12 20 -9 21 8 17 23 -6 23 -13 0 -18 -5 -14
-14z"/>
<path d="M630 1180 c12 -16 24 -30 26 -30 3 0 -4 14 -16 30 -12 17 -24 30 -26
30 -3 0 4 -13 16 -30z"/>
<path d="M4796 1170 c8 -43 14 -51 14 -19 0 13 -5 31 -10 39 -7 11 -8 5 -4
-20z"/>
<path d="M4756 1174 c-5 -14 -4 -15 9 -4 17 14 19 20 6 20 -5 0 -12 -7 -15
-16z"/>
<path d="M1800 1125 c0 -5 5 -17 10 -25 5 -8 10 -10 10 -5 0 6 -5 17 -10 25
-5 8 -10 11 -10 5z"/>
<path d="M1515 1090 c-3 -5 -1 -10 4 -10 6 0 11 5 11 10 0 6 -2 10 -4 10 -3 0
-8 -4 -11 -10z"/>
<path d="M3391 1034 c0 -11 3 -14 6 -6 3 7 2 16 -1 19 -3 4 -6 -2 -5 -13z"/>
<path d="M5092 880 c-7 -12 -14 -73 -17 -152 -3 -82 -2 -125 4 -113 4 11 6 24
4 28 -3 5 3 15 13 23 11 9 13 13 7 9 -8 -4 -13 0 -13 10 0 9 4 14 9 11 5 -3
11 4 15 17 8 30 6 148 -2 169 -7 17 -8 16 -20 -2z"/>
<path d="M1825 880 c3 -5 8 -10 11 -10 2 0 4 5 4 10 0 6 -5 10 -11 10 -5 0 -7
-4 -4 -10z"/>
</g>
</svg>
